<svg xmlns="http://www.w3.org/2000/svg" xmlns:xlink="http://www.w3.org/1999/xlink" width="300" zoomAndPan="magnify" viewBox="0 0 224.87999 66.75" height="89" preserveAspectRatio="xMidYMid meet" version="1.0"><path fill="#ffffff" d="M 25.308594 20.035156 C 35.195312 20.035156 42.003906 25.496094 44.203125 34.597656 L 33.21875 34.597656 C 32.117188 31.183594 29.261719 28.910156 25.085938 28.910156 C 19.375 28.910156 15.640625 33.460938 15.640625 41.421875 C 15.640625 49.386719 19.375 53.707031 25.085938 53.707031 C 29.261719 53.707031 31.898438 51.660156 33.21875 48.019531 L 44.203125 48.019531 C 42.003906 56.894531 35.414062 62.582031 25.308594 62.582031 C 13.664062 62.351562 5.53125 54.164062 5.53125 41.195312 C 5.53125 28.226562 13.664062 20.035156 25.308594 20.035156 Z M 25.308594 20.035156 " fill-opacity="1" fill-rule="nonzero"/><path fill="#ffffff" d="M 89.246094 61.898438 L 79.136719 61.898438 L 79.136719 56.664062 C 76.722656 60.078125 72.328125 62.351562 67.273438 62.351562 C 58.046875 62.351562 51.234375 56.210938 51.234375 44.835938 L 51.234375 20.71875 L 61.339844 20.71875 L 61.339844 43.46875 C 61.339844 50.066406 64.855469 53.707031 70.128906 53.707031 C 75.625 53.707031 79.136719 50.066406 79.136719 43.46875 L 79.136719 20.71875 L 89.246094 20.71875 Z M 89.246094 61.898438 " fill-opacity="1" fill-rule="nonzero"/><path fill="#ffffff" d="M 122.425781 20.035156 C 132.53125 20.035156 140.660156 28.453125 140.660156 41.195312 C 140.660156 53.9375 132.53125 62.582031 122.425781 62.582031 C 116.273438 62.582031 111.660156 59.625 109.242188 55.984375 L 109.242188 61.898438 L 99.132812 61.898438 L 99.132812 6.613281 L 109.242188 6.613281 L 109.242188 26.636719 C 111.660156 22.996094 116.492188 20.035156 122.425781 20.035156 Z M 119.789062 29.136719 C 114.296875 29.136719 109.242188 33.460938 109.242188 41.421875 C 109.242188 49.386719 114.296875 53.707031 119.789062 53.707031 C 125.28125 53.707031 130.554688 49.15625 130.554688 41.421875 C 130.554688 33.234375 125.28125 29.136719 119.789062 29.136719 Z M 119.789062 29.136719 " fill-opacity="1" fill-rule="nonzero"/><path fill="#ffffff" d="M 158.238281 20.71875 L 148.128906 20.71875 L 148.128906 62.125 L 158.238281 62.125 Z M 158.238281 20.71875 " fill-opacity="1" fill-rule="nonzero"/><path fill="#ffffff" d="M 181.972656 49.15625 L 174.71875 61.898438 L 163.953125 61.898438 L 176.917969 41.195312 L 163.734375 20.492188 L 175.160156 20.492188 L 183.507812 33.230469 L 190.980469 20.492188 L 201.746094 20.492188 L 188.5625 41.195312 L 201.746094 61.898438 L 190.101562 61.898438 Z M 181.972656 49.15625 " fill-opacity="1" fill-rule="nonzero"/><path fill="#ffffff" d="M 152.957031 16.851562 C 156.71875 16.851562 159.769531 13.695312 159.769531 9.800781 C 159.769531 5.90625 156.71875 2.746094 152.957031 2.746094 C 149.195312 2.746094 146.144531 5.90625 146.144531 9.800781 C 146.144531 13.695312 149.195312 16.851562 152.957031 16.851562 Z M 152.957031 16.851562 " fill-opacity="1" fill-rule="nonzero"/><path fill="#2ed06e" d="M 211.851562 61.445312 C 215.613281 61.445312 218.660156 58.285156 218.660156 54.390625 C 218.660156 50.496094 215.613281 47.339844 211.851562 47.339844 C 208.089844 47.339844 205.039062 50.496094 205.039062 54.390625 C 205.039062 58.285156 208.089844 61.445312 211.851562 61.445312 Z M 211.851562 61.445312 " fill-opacity="1" fill-rule="nonzero"/></svg>